<svg viewBox="0 0 675 435" fill="none" xmlns="http://www.w3.org/2000/svg">
<path d="M657.57 434.548H16.7316C12.357 434.543 8.16304 432.803 5.06976 429.71C1.97648 426.616 0.236512 422.422 0.231567 418.048V22.894C0.235132 19.6892 1.50981 16.6166 3.77594 14.3504C6.04207 12.0842 9.1146 10.8094 12.3195 10.8057H661.773C665.033 10.8094 668.159 12.1062 670.464 14.4116C672.77 16.717 674.066 19.8427 674.07 23.103V418.048C674.065 422.422 672.325 426.616 669.232 429.71C666.139 432.803 661.945 434.543 657.57 434.548V434.548Z" fill="#F2F2F2"/>
<path d="M636.85 413.716H39.6055C30.8505 413.716 23.7279 407.046 23.7279 398.847V54.7424C23.7279 48.6623 29.0059 43.7155 35.4936 43.7155H640.767C647.362 43.7155 652.728 48.7438 652.728 54.924V398.847C652.728 407.046 645.605 413.716 636.85 413.716Z" fill="white"/>
<path d="M673.84 24.9502H0V16.5498C0.00634364 12.1607 1.75342 7.95333 4.85794 4.85072C7.96246 1.74811 12.1709 0.00363937 16.56 0H657.28C661.669 0.00360236 665.878 1.74806 668.982 4.85068C672.087 7.95329 673.834 12.1607 673.84 16.5498V24.9502Z" fill="#3F3D56"/>
<path d="M30.0954 16.7834C32.4611 16.7834 34.3788 14.8657 34.3788 12.5C34.3788 10.1343 32.4611 8.21658 30.0954 8.21658C27.7298 8.21658 25.812 10.1343 25.812 12.5C25.812 14.8657 27.7298 16.7834 30.0954 16.7834Z" fill="white"/>
<path d="M46.3542 16.7834C48.7199 16.7834 50.6376 14.8657 50.6376 12.5C50.6376 10.1343 48.7199 8.21658 46.3542 8.21658C43.9885 8.21658 42.0708 10.1343 42.0708 12.5C42.0708 14.8657 43.9885 16.7834 46.3542 16.7834Z" fill="white"/>
<path d="M62.613 16.7834C64.9787 16.7834 66.8964 14.8657 66.8964 12.5C66.8964 10.1343 64.9787 8.21658 62.613 8.21658C60.2473 8.21658 58.3296 10.1343 58.3296 12.5C58.3296 14.8657 60.2473 16.7834 62.613 16.7834Z" fill="white"/>
<path d="M149.29 127H47.7101C46.1957 127 44.7433 126.315 43.6724 125.096C42.6016 123.877 42 122.224 42 120.5C42 118.776 42.6016 117.123 43.6724 115.904C44.7433 114.685 46.1957 114 47.7101 114H149.29C150.804 114 152.257 114.685 153.328 115.904C154.398 117.123 155 118.776 155 120.5C155 122.224 154.398 123.877 153.328 125.096C152.257 126.315 150.804 127 149.29 127V127Z" fill="#CCCCCC"/>
<path d="M276.239 127H173.761C172.233 127 170.768 126.315 169.687 125.096C168.607 123.877 168 122.224 168 120.5C168 118.776 168.607 117.123 169.687 115.904C170.768 114.685 172.233 114 173.761 114H276.239C277.767 114 279.232 114.685 280.313 115.904C281.393 117.123 282 118.776 282 120.5C282 122.224 281.393 123.877 280.313 125.096C279.232 126.315 277.767 127 276.239 127V127Z" fill="#CCCCCC"/>
<path d="M276.264 152H98.7364C97.215 152 95.7559 151.315 94.6801 150.096C93.6044 148.877 93 147.224 93 145.5C93 143.776 93.6044 142.123 94.6801 140.904C95.7559 139.685 97.215 139 98.7364 139H276.264C277.785 139 279.244 139.685 280.32 140.904C281.396 142.123 282 143.776 282 145.5C282 147.224 281.396 148.877 280.32 150.096C279.244 151.315 277.785 152 276.264 152Z" fill="#CCCCCC"/>
<path d="M149.283 102H47.7031C46.1899 101.998 44.7393 101.312 43.67 100.093C42.6007 98.8746 42 97.2225 42 95.5C42 93.7775 42.6007 92.1254 43.67 90.9066C44.7393 89.6879 46.1899 89.0021 47.7031 89H149.283C150.033 88.999 150.777 89.1663 151.47 89.4925C152.164 89.8187 152.794 90.2973 153.325 90.901C153.856 91.5047 154.277 92.2216 154.565 93.0107C154.852 93.7998 155 94.6457 155 95.5C155 96.3543 154.852 97.2002 154.565 97.9893C154.277 98.7784 153.856 99.4953 153.325 100.099C152.794 100.703 152.164 101.181 151.47 101.508C150.777 101.834 150.033 102.001 149.283 102V102Z" fill="#CCCCCC"/>
<path d="M205.328 102H176.672C175.167 102 173.725 101.315 172.661 100.096C171.598 98.8772 171 97.2239 171 95.5C171 93.7761 171.598 92.1228 172.661 90.9038C173.725 89.6848 175.167 89 176.672 89H205.328C206.833 89 208.275 89.6848 209.339 90.9038C210.402 92.1228 211 93.7761 211 95.5C211 97.2239 210.402 98.8772 209.339 100.096C208.275 101.315 206.833 102 205.328 102Z" fill="#CCCCCC"/>
<path d="M76.3213 152H47.6646C46.1616 151.998 44.7209 151.312 43.6587 150.093C42.5966 148.875 42 147.223 42 145.5C42 143.777 42.5966 142.125 43.6587 140.907C44.7209 139.688 46.1616 139.002 47.6646 139H76.3213C77.0667 138.999 77.805 139.166 78.4939 139.492C79.1829 139.819 79.8089 140.297 80.3363 140.901C80.8637 141.505 81.2821 142.222 81.5676 143.011C81.8531 143.8 82 144.646 82 145.5C82 146.354 81.8531 147.2 81.5676 147.989C81.2821 148.778 80.8637 149.495 80.3363 150.099C79.8089 150.703 79.1829 151.181 78.4939 151.508C77.805 151.834 77.0667 152.001 76.3213 152Z" fill="#CCCCCC"/>
<path d="M479.374 126.36H362.566C360.825 126.36 359.155 125.668 357.923 124.437C356.692 123.206 356 121.535 356 119.794C356 118.052 356.692 116.382 357.923 115.151C359.155 113.92 360.825 113.228 362.566 113.228H479.374C480.237 113.228 481.09 113.398 481.887 113.728C482.684 114.058 483.407 114.541 484.017 115.151C484.627 115.761 485.111 116.485 485.441 117.281C485.771 118.078 485.94 118.932 485.94 119.794C485.94 120.656 485.771 121.51 485.441 122.307C485.111 123.103 484.627 123.827 484.017 124.437C483.407 125.047 482.684 125.53 481.887 125.86C481.09 126.19 480.237 126.36 479.374 126.36V126.36Z" fill="#CCCCCC"/>
<path d="M624.52 126.36H507.712C505.971 126.36 504.301 125.668 503.069 124.437C501.838 123.206 501.146 121.535 501.146 119.794C501.146 118.052 501.838 116.382 503.069 115.151C504.301 113.92 505.971 113.228 507.712 113.228H624.52C625.383 113.228 626.237 113.398 627.033 113.728C627.83 114.058 628.554 114.541 629.163 115.151C629.773 115.761 630.257 116.485 630.587 117.281C630.917 118.078 631.087 118.932 631.087 119.794C631.087 120.656 630.917 121.51 630.587 122.307C630.257 123.103 629.773 123.827 629.163 124.437C628.554 125.047 627.83 125.53 627.033 125.86C626.237 126.19 625.383 126.36 624.52 126.36V126.36Z" fill="#CCCCCC"/>
<path d="M624.52 151.242H421.316C419.574 151.242 417.904 150.551 416.673 149.319C415.441 148.088 414.75 146.418 414.75 144.676C414.75 142.935 415.441 141.265 416.673 140.033C417.904 138.802 419.574 138.11 421.316 138.11H624.52C625.383 138.109 626.238 138.278 627.036 138.608C627.833 138.937 628.558 139.42 629.169 140.03C629.779 140.64 630.264 141.364 630.594 142.162C630.925 142.959 631.095 143.813 631.095 144.676C631.095 145.539 630.925 146.394 630.594 147.191C630.264 147.988 629.779 148.712 629.169 149.322C628.558 149.932 627.833 150.415 627.036 150.745C626.238 151.074 625.383 151.243 624.52 151.242Z" fill="#CCCCCC"/>
<path d="M479.374 101.132H362.566C360.825 101.132 359.155 100.44 357.923 99.2091C356.692 97.9777 356 96.3076 356 94.5661C356 92.8247 356.692 91.1546 357.923 89.9232C359.155 88.6918 360.825 88 362.566 88H479.374C481.116 88 482.786 88.6918 484.017 89.9232C485.249 91.1546 485.94 92.8247 485.94 94.5661C485.94 96.3076 485.249 97.9777 484.017 99.2091C482.786 100.44 481.116 101.132 479.374 101.132Z" fill="#CCCCCC"/>
<path d="M543.653 101.478H510.477C508.735 101.478 507.065 100.786 505.834 99.5547C504.603 98.3233 503.911 96.6532 503.911 94.9117C503.911 93.1703 504.603 91.5002 505.834 90.2688C507.065 89.0374 508.735 88.3456 510.477 88.3456H543.653C545.395 88.3456 547.065 89.0374 548.296 90.2688C549.528 91.5002 550.219 93.1703 550.219 94.9117C550.219 96.6532 549.528 98.3233 548.296 99.5547C547.065 100.786 545.395 101.478 543.653 101.478V101.478Z" fill="#CCCCCC"/>
<path d="M395.742 151.242H362.566C360.825 151.242 359.155 150.551 357.923 149.319C356.692 148.088 356 146.418 356 144.676C356 142.935 356.692 141.265 357.923 140.033C359.155 138.802 360.825 138.11 362.566 138.11H395.742C396.605 138.109 397.46 138.278 398.258 138.608C399.055 138.937 399.78 139.42 400.391 140.03C401.001 140.64 401.486 141.364 401.816 142.162C402.147 142.959 402.317 143.813 402.317 144.676C402.317 145.539 402.147 146.394 401.816 147.191C401.486 147.988 401.001 148.712 400.391 149.322C399.78 149.932 399.055 150.415 398.258 150.745C397.46 151.074 396.605 151.243 395.742 151.242Z" fill="#CCCCCC"/>
<path d="M158.29 360H56.7101C55.1957 360 53.7433 359.315 52.6724 358.096C51.6016 356.877 51 355.224 51 353.5C51 351.776 51.6016 350.123 52.6724 348.904C53.7433 347.685 55.1957 347 56.7101 347H158.29C159.804 347 161.257 347.685 162.328 348.904C163.398 350.123 164 351.776 164 353.5C164 355.224 163.398 356.877 162.328 358.096C161.257 359.315 159.804 360 158.29 360V360Z" fill="#CCCCCC"/>
<path d="M285.239 360H182.761C181.233 360 179.768 359.315 178.687 358.096C177.607 356.877 177 355.224 177 353.5C177 351.776 177.607 350.123 178.687 348.904C179.768 347.685 181.233 347 182.761 347H285.239C286.767 347 288.232 347.685 289.313 348.904C290.393 350.123 291 351.776 291 353.5C291 355.224 290.393 356.877 289.313 358.096C288.232 359.315 286.767 360 285.239 360V360Z" fill="#CCCCCC"/>
<path d="M285.264 385H107.736C106.215 385 104.756 384.315 103.68 383.096C102.604 381.877 102 380.224 102 378.5C102 376.776 102.604 375.123 103.68 373.904C104.756 372.685 106.215 372 107.736 372H285.264C286.785 372 288.244 372.685 289.32 373.904C290.396 375.123 291 376.776 291 378.5C291 380.224 290.396 381.877 289.32 383.096C288.244 384.315 286.785 385 285.264 385Z" fill="#CCCCCC"/>
<path d="M158.283 335H56.7031C55.1899 334.998 53.7393 334.312 52.67 333.093C51.6007 331.875 51 330.223 51 328.5C51 326.777 51.6007 325.125 52.67 323.907C53.7393 322.688 55.1899 322.002 56.7031 322H158.283C159.033 321.999 159.777 322.166 160.47 322.492C161.164 322.819 161.794 323.297 162.325 323.901C162.856 324.505 163.277 325.222 163.565 326.011C163.852 326.8 164 327.646 164 328.5C164 329.354 163.852 330.2 163.565 330.989C163.277 331.778 162.856 332.495 162.325 333.099C161.794 333.703 161.164 334.181 160.47 334.508C159.777 334.834 159.033 335.001 158.283 335V335Z" fill="#CCCCCC"/>
<path d="M214.328 335H185.672C184.167 335 182.725 334.315 181.661 333.096C180.598 331.877 180 330.224 180 328.5C180 326.776 180.598 325.123 181.661 323.904C182.725 322.685 184.167 322 185.672 322H214.328C215.833 322 217.275 322.685 218.339 323.904C219.402 325.123 220 326.776 220 328.5C220 330.224 219.402 331.877 218.339 333.096C217.275 334.315 215.833 335 214.328 335Z" fill="#CCCCCC"/>
<path d="M85.3213 385H56.6646C55.1616 384.998 53.7209 384.312 52.6587 383.093C51.5966 381.875 51 380.223 51 378.5C51 376.777 51.5966 375.125 52.6587 373.907C53.7209 372.688 55.1616 372.002 56.6646 372H85.3213C86.0667 371.999 86.805 372.166 87.4939 372.492C88.1829 372.819 88.8089 373.297 89.3363 373.901C89.8637 374.505 90.2821 375.222 90.5676 376.011C90.8531 376.8 91 377.646 91 378.5C91 379.354 90.8531 380.2 90.5676 380.989C90.2821 381.778 89.8637 382.495 89.3363 383.099C88.8089 383.703 88.1829 384.181 87.4939 384.508C86.805 384.834 86.0667 385.001 85.3213 385Z" fill="#CCCCCC"/>
<path d="M488.374 359.36H371.566C369.825 359.36 368.155 358.668 366.923 357.437C365.692 356.206 365 354.535 365 352.794C365 351.052 365.692 349.382 366.923 348.151C368.155 346.92 369.825 346.228 371.566 346.228H488.374C489.237 346.228 490.09 346.398 490.887 346.728C491.684 347.058 492.407 347.541 493.017 348.151C493.627 348.761 494.111 349.485 494.441 350.281C494.771 351.078 494.94 351.932 494.94 352.794C494.94 353.656 494.771 354.51 494.441 355.307C494.111 356.103 493.627 356.827 493.017 357.437C492.407 358.047 491.684 358.53 490.887 358.86C490.09 359.19 489.237 359.36 488.374 359.36V359.36Z" fill="#CCCCCC"/>
<path d="M633.52 359.36H516.712C514.971 359.36 513.301 358.668 512.069 357.437C510.838 356.206 510.146 354.535 510.146 352.794C510.146 351.052 510.838 349.382 512.069 348.151C513.301 346.92 514.971 346.228 516.712 346.228H633.52C634.383 346.228 635.237 346.398 636.033 346.728C636.83 347.058 637.554 347.541 638.163 348.151C638.773 348.761 639.257 349.485 639.587 350.281C639.917 351.078 640.087 351.932 640.087 352.794C640.087 353.656 639.917 354.51 639.587 355.307C639.257 356.103 638.773 356.827 638.163 357.437C637.554 358.047 636.83 358.53 636.033 358.86C635.237 359.19 634.383 359.36 633.52 359.36V359.36Z" fill="#CCCCCC"/>
<path d="M633.52 384.242H430.316C428.574 384.242 426.904 383.551 425.673 382.319C424.441 381.088 423.75 379.418 423.75 377.676C423.75 375.935 424.441 374.265 425.673 373.033C426.904 371.802 428.574 371.11 430.316 371.11H633.52C634.383 371.109 635.238 371.278 636.036 371.608C636.833 371.937 637.558 372.42 638.169 373.03C638.779 373.64 639.264 374.364 639.594 375.162C639.925 375.959 640.095 376.813 640.095 377.676C640.095 378.539 639.925 379.394 639.594 380.191C639.264 380.988 638.779 381.712 638.169 382.322C637.558 382.932 636.833 383.415 636.036 383.745C635.238 384.074 634.383 384.243 633.52 384.242Z" fill="#CCCCCC"/>
<path d="M488.374 334.132H371.566C369.825 334.132 368.155 333.44 366.923 332.209C365.692 330.978 365 329.308 365 327.566C365 325.825 365.692 324.155 366.923 322.923C368.155 321.692 369.825 321 371.566 321H488.374C490.116 321 491.786 321.692 493.017 322.923C494.249 324.155 494.94 325.825 494.94 327.566C494.94 329.308 494.249 330.978 493.017 332.209C491.786 333.44 490.116 334.132 488.374 334.132Z" fill="#CCCCCC"/>
<path d="M552.653 334.478H519.477C517.735 334.478 516.065 333.786 514.834 332.555C513.603 331.323 512.911 329.653 512.911 327.912C512.911 326.17 513.603 324.5 514.834 323.269C516.065 322.037 517.735 321.346 519.477 321.346H552.653C554.395 321.346 556.065 322.037 557.296 323.269C558.528 324.5 559.219 326.17 559.219 327.912C559.219 329.653 558.528 331.323 557.296 332.555C556.065 333.786 554.395 334.478 552.653 334.478V334.478Z" fill="#CCCCCC"/>
<path d="M404.742 384.242H371.566C369.825 384.242 368.155 383.551 366.923 382.319C365.692 381.088 365 379.418 365 377.676C365 375.935 365.692 374.265 366.923 373.033C368.155 371.802 369.825 371.11 371.566 371.11H404.742C405.605 371.109 406.46 371.278 407.258 371.608C408.055 371.937 408.78 372.42 409.391 373.03C410.001 373.64 410.486 374.364 410.816 375.162C411.147 375.959 411.317 376.813 411.317 377.676C411.317 378.539 411.147 379.394 410.816 380.191C410.486 380.988 410.001 381.712 409.391 382.322C408.78 382.932 408.055 383.415 407.258 383.745C406.46 384.074 405.605 384.243 404.742 384.242Z" fill="#CCCCCC"/>
<path d="M153.29 236H51.7101C50.1957 236 48.7433 235.315 47.6724 234.096C46.6016 232.877 46 231.224 46 229.5C46 227.776 46.6016 226.123 47.6724 224.904C48.7433 223.685 50.1957 223 51.7101 223H153.29C154.804 223 156.257 223.685 157.328 224.904C158.398 226.123 159 227.776 159 229.5C159 231.224 158.398 232.877 157.328 234.096C156.257 235.315 154.804 236 153.29 236V236Z" fill="#CCCCCC"/>
<path d="M280.239 236H177.761C176.233 236 174.768 235.315 173.687 234.096C172.607 232.877 172 231.224 172 229.5C172 227.776 172.607 226.123 173.687 224.904C174.768 223.685 176.233 223 177.761 223H280.239C281.767 223 283.232 223.685 284.313 224.904C285.393 226.123 286 227.776 286 229.5C286 231.224 285.393 232.877 284.313 234.096C283.232 235.315 281.767 236 280.239 236V236Z" fill="#CCCCCC"/>
<path d="M280.264 261H102.736C101.215 261 99.7559 260.315 98.6801 259.096C97.6044 257.877 97 256.224 97 254.5C97 252.776 97.6044 251.123 98.6801 249.904C99.7559 248.685 101.215 248 102.736 248H280.264C281.785 248 283.244 248.685 284.32 249.904C285.396 251.123 286 252.776 286 254.5C286 256.224 285.396 257.877 284.32 259.096C283.244 260.315 281.785 261 280.264 261Z" fill="#CCCCCC"/>
<path d="M153.283 211H51.7031C50.1899 210.998 48.7393 210.312 47.67 209.093C46.6007 207.875 46 206.223 46 204.5C46 202.777 46.6007 201.125 47.67 199.907C48.7393 198.688 50.1899 198.002 51.7031 198H153.283C154.033 197.999 154.777 198.166 155.47 198.492C156.164 198.819 156.794 199.297 157.325 199.901C157.856 200.505 158.277 201.222 158.565 202.011C158.852 202.8 159 203.646 159 204.5C159 205.354 158.852 206.2 158.565 206.989C158.277 207.778 157.856 208.495 157.325 209.099C156.794 209.703 156.164 210.181 155.47 210.508C154.777 210.834 154.033 211.001 153.283 211V211Z" fill="#CCCCCC"/>
<path d="M209.328 211H180.672C179.167 211 177.725 210.315 176.661 209.096C175.598 207.877 175 206.224 175 204.5C175 202.776 175.598 201.123 176.661 199.904C177.725 198.685 179.167 198 180.672 198H209.328C210.833 198 212.275 198.685 213.339 199.904C214.402 201.123 215 202.776 215 204.5C215 206.224 214.402 207.877 213.339 209.096C212.275 210.315 210.833 211 209.328 211Z" fill="#CCCCCC"/>
<path d="M80.3213 261H51.6646C50.1616 260.998 48.7209 260.312 47.6587 259.093C46.5966 257.875 46 256.223 46 254.5C46 252.777 46.5966 251.125 47.6587 249.907C48.7209 248.688 50.1616 248.002 51.6646 248H80.3213C81.0667 247.999 81.805 248.166 82.4939 248.492C83.1829 248.819 83.8089 249.297 84.3363 249.901C84.8637 250.505 85.2821 251.222 85.5676 252.011C85.8531 252.8 86 253.646 86 254.5C86 255.354 85.8531 256.2 85.5676 256.989C85.2821 257.778 84.8637 258.495 84.3363 259.099C83.8089 259.703 83.1829 260.181 82.4939 260.508C81.805 260.834 81.0667 261.001 80.3213 261Z" fill="#CCCCCC"/>
<path d="M483.374 235.36H366.566C364.825 235.36 363.155 234.668 361.923 233.437C360.692 232.206 360 230.535 360 228.794C360 227.052 360.692 225.382 361.923 224.151C363.155 222.92 364.825 222.228 366.566 222.228H483.374C484.237 222.228 485.09 222.398 485.887 222.728C486.684 223.058 487.407 223.541 488.017 224.151C488.627 224.761 489.111 225.485 489.441 226.281C489.771 227.078 489.94 227.932 489.94 228.794C489.94 229.656 489.771 230.51 489.441 231.307C489.111 232.103 488.627 232.827 488.017 233.437C487.407 234.047 486.684 234.53 485.887 234.86C485.09 235.19 484.237 235.36 483.374 235.36V235.36Z" fill="#CCCCCC"/>
<path d="M628.52 235.36H511.712C509.971 235.36 508.301 234.668 507.069 233.437C505.838 232.206 505.146 230.535 505.146 228.794C505.146 227.052 505.838 225.382 507.069 224.151C508.301 222.92 509.971 222.228 511.712 222.228H628.52C629.383 222.228 630.237 222.398 631.033 222.728C631.83 223.058 632.554 223.541 633.163 224.151C633.773 224.761 634.257 225.485 634.587 226.281C634.917 227.078 635.087 227.932 635.087 228.794C635.087 229.656 634.917 230.51 634.587 231.307C634.257 232.103 633.773 232.827 633.163 233.437C632.554 234.047 631.83 234.53 631.033 234.86C630.237 235.19 629.383 235.36 628.52 235.36V235.36Z" fill="#CCCCCC"/>
<path d="M628.52 260.242H425.316C423.574 260.242 421.904 259.551 420.673 258.319C419.441 257.088 418.75 255.418 418.75 253.676C418.75 251.935 419.441 250.265 420.673 249.033C421.904 247.802 423.574 247.11 425.316 247.11H628.52C629.383 247.109 630.238 247.278 631.036 247.608C631.833 247.937 632.558 248.42 633.169 249.03C633.779 249.64 634.264 250.364 634.594 251.162C634.925 251.959 635.095 252.813 635.095 253.676C635.095 254.539 634.925 255.394 634.594 256.191C634.264 256.988 633.779 257.712 633.169 258.322C632.558 258.932 631.833 259.415 631.036 259.745C630.238 260.074 629.383 260.243 628.52 260.242Z" fill="#CCCCCC"/>
<path d="M483.374 210.132H366.566C364.825 210.132 363.155 209.44 361.923 208.209C360.692 206.978 360 205.308 360 203.566C360 201.825 360.692 200.155 361.923 198.923C363.155 197.692 364.825 197 366.566 197H483.374C485.116 197 486.786 197.692 488.017 198.923C489.249 200.155 489.94 201.825 489.94 203.566C489.94 205.308 489.249 206.978 488.017 208.209C486.786 209.44 485.116 210.132 483.374 210.132Z" fill="#CCCCCC"/>
<path d="M547.653 210.478H514.477C512.735 210.478 511.065 209.786 509.834 208.555C508.603 207.323 507.911 205.653 507.911 203.912C507.911 202.17 508.603 200.5 509.834 199.269C511.065 198.037 512.735 197.346 514.477 197.346H547.653C549.395 197.346 551.065 198.037 552.296 199.269C553.528 200.5 554.219 202.17 554.219 203.912C554.219 205.653 553.528 207.323 552.296 208.555C551.065 209.786 549.395 210.478 547.653 210.478V210.478Z" fill="#CCCCCC"/>
<path d="M399.742 260.242H366.566C364.825 260.242 363.155 259.551 361.923 258.319C360.692 257.088 360 255.418 360 253.676C360 251.935 360.692 250.265 361.923 249.033C363.155 247.802 364.825 247.11 366.566 247.11H399.742C400.605 247.109 401.46 247.278 402.258 247.608C403.055 247.937 403.78 248.42 404.391 249.03C405.001 249.64 405.486 250.364 405.816 251.162C406.147 251.959 406.317 252.813 406.317 253.676C406.317 254.539 406.147 255.394 405.816 256.191C405.486 256.988 405.001 257.712 404.391 258.322C403.78 258.932 403.055 259.415 402.258 259.745C401.46 260.074 400.605 260.243 399.742 260.242Z" fill="#CCCCCC"/>
</svg>
