<svg viewBox="0 0 363 728" fill="none" xmlns="http://www.w3.org/2000/svg">
<path d="M362.889 172.947H358.891V63.4019C358.891 55.0758 357.251 46.8313 354.064 39.139C350.878 31.4467 346.208 24.4573 340.32 18.5699C334.433 12.6825 327.444 8.01237 319.751 4.82613C312.059 1.6399 303.815 -2.62641e-05 295.488 3.15481e-10H63.402C55.0759 -1.9698e-05 46.8314 1.6399 39.1391 4.82614C31.4468 8.01238 24.4574 12.6825 18.57 18.5699C12.6826 24.4574 8.01242 31.4467 4.82617 39.139C1.63993 46.8313 -9.19252e-06 55.0758 0 63.4019V664.376C-1.05057e-05 672.702 1.63993 680.947 4.82617 688.639C8.01242 696.331 12.6826 703.321 18.57 709.208C24.4574 715.096 31.4468 719.766 39.1391 722.952C46.8314 726.138 55.0759 727.778 63.402 727.778H295.488C303.815 727.778 312.059 726.138 319.751 722.952C327.444 719.766 334.433 715.096 340.32 709.208C346.208 703.321 350.878 696.331 354.064 688.639C357.251 680.947 358.891 672.702 358.891 664.376V250.923H362.889V172.947Z" fill="#3F3D56"/>
<path d="M298.047 16.495H267.752C269.145 19.9106 269.677 23.6165 269.3 27.286C268.924 30.9556 267.651 34.4763 265.593 37.538C263.536 40.5997 260.757 43.1084 257.501 44.8431C254.246 46.5778 250.613 47.4852 246.925 47.4855H113.965C110.276 47.4852 106.644 46.5778 103.389 44.8431C100.133 43.1084 97.3542 40.5997 95.2966 37.538C93.239 34.4763 91.9659 30.9556 91.5895 27.286C91.2131 23.6164 91.7449 19.9106 93.1381 16.4949H64.8425C58.6247 16.4949 52.4678 17.7196 46.7233 20.099C40.9788 22.4785 35.7592 25.9661 31.3625 30.3627C26.9659 34.7594 23.4782 39.979 21.0988 45.7235C18.7193 51.468 17.4946 57.6249 17.4946 63.8427V663.935C17.4946 670.153 18.7193 676.31 21.0988 682.054C23.4782 687.799 26.9659 693.019 31.3625 697.415C35.7592 701.812 40.9788 705.299 46.7233 707.679C52.4678 710.058 58.6247 711.283 64.8425 711.283H298.047C304.265 711.283 310.422 710.058 316.166 707.679C321.911 705.299 327.13 701.812 331.527 697.415C335.923 693.019 339.411 687.799 341.79 682.054C344.17 676.31 345.395 670.153 345.395 663.935V63.8427C345.395 57.6249 344.17 51.468 341.79 45.7235C339.411 39.979 335.923 34.7594 331.527 30.3628C327.13 25.9661 321.911 22.4785 316.166 20.0991C310.422 17.7196 304.265 16.495 298.047 16.495Z" fill="white"/>
<path d="M213.867 177.704H131.207V185.38H213.867V177.704Z" fill="#0466FE"/>
<path d="M275.276 204.259H131.207V211.935H275.276V204.259Z" fill="#E6E6E6"/>
<path d="M275.135 230.813H131.207V238.489H275.135V230.813Z" fill="#E6E6E6"/>
<path d="M114.077 177.818H52.6674V239.228H114.077V177.818Z" fill="#0466FE"/>
<path d="M213.867 338.904H131.207V346.58H213.867V338.904Z" fill="#0466FE"/>
<path d="M275.276 365.458H131.207V373.134H275.276V365.458Z" fill="#E6E6E6"/>
<path d="M275.135 392.012H131.207V399.688H275.135V392.012Z" fill="#E6E6E6"/>
<path d="M114.077 339.018H52.6674V400.427H114.077V339.018Z" fill="#0466FE"/>
<path d="M213.867 500.103H131.207V507.779H213.867V500.103Z" fill="#0466FE"/>
<path d="M275.276 526.657H131.207V534.334H275.276V526.657Z" fill="#E6E6E6"/>
<path d="M275.135 553.212H131.207V560.888H275.135V553.212Z" fill="#E6E6E6"/>
<path d="M114.077 500.217H52.6674V561.626H114.077V500.217Z" fill="#0466FE"/>
</svg>
